<?xml version="1.0" ?><svg width="200" height="200" id="Layer_1" style="enable-background:new 0 0 52 52;" version="1.1" viewBox="0 0 52 52" xml:space="preserve" xmlns="http://www.w3.org/2000/svg" xmlns:xlink="http://www.w3.org/1999/xlink"><style type="text/css">
	.st0{fill:#fff;}
</style><g><g><path class="st0" d="M5.6445651,2.8803353c7.1199708-0.0758529,14.2401428-0.1188352,21.3605328-0.1189673    c3.5601635-0.000066,7.1203251,0.0103614,10.6804295,0.03035c2.5205688,0.0141518,8.8764534-1.1317732,10.4921112,1.3104649    c1.2763824,1.9293909,0.5195656,7.4165769,0.5304947,9.7448502c0.0162468,3.4622879-0.0011673,6.925127-0.0264168,10.3873215    c-0.0252495,3.4623775-0.0669098,6.9246178-0.1250763,10.3866024c-0.0538521,3.2052498,0.5444221,7.4410286-0.2901268,10.5132561    c-1.7433662,6.4178276-15.9905853,3.9722748-21.2756824,3.9758034c-3.6220818,0.0024147-7.2441635,0.0048332-10.8662453,0.0072479    c-2.603467,0.0017395-8.4777222,0.9624748-10.8271961-0.3229103c-3.0775547-1.683712-1.9434347-7.8972778-1.9418948-10.7566872    c0.0021398-3.9732399,0.0042794-7.9464798,0.0064189-11.9197197C3.363596,22.9950123,1.5593524,2.7588949,6.5663557,2.9947925    c1.4474936,0.0681965,1.4440107-2.1819675,0-2.25C2.5623066,0.5561475,1.3098488,4.026628,1.1360664,7.4848862    c-0.4097522,8.154047-0.0229646,16.4276581-0.0273618,24.5929222c-0.0021396,3.9730835-0.0232356,7.9466743-0.0064192,11.9197197    c0.0079008,1.8666496-0.3133253,4.2682419,1.1004003,5.7756615c2.892612,3.0843163,11.3007374,1.5958252,14.9097404,1.5934181    c8.2309341-0.0054932,16.4654808,0.0606499,24.6960106-0.0164795c4.6362839-0.0434456,8.0959969-0.8494301,8.7215729-5.9114609    c0.8907471-7.207737,0.3619766-14.8894005,0.4085922-22.1485977c0.0238037-3.7066116,0.0567017-7.4160366,0.0119858-11.1225767    c-0.0331535-2.7483377,0.3736115-6.7461782-0.8350563-9.3232412c-0.6937637-1.4792063-1.4143028-1.8513304-3.036869-2.171418    c-4.1229095-0.8133348-9.0729027-0.1339175-13.2769051-0.1489723C24.4158192,0.4902493,15.0300035,0.5303472,5.6445651,0.6303353    C4.1976266,0.6457503,4.1938972,2.8957901,5.6445651,2.8803353L5.6445651,2.8803353z"/></g><g><path class="st0" d="M2.728054,14.9067268c15.4166794,0.0161705,30.8333588,0.03234,46.2500381,0.0485106    c1.4478302,0.0015182,1.4500961-2.2484789,0-2.25c-15.4166794-0.0161705-30.8333588-0.03234-46.2500381-0.0485106    C1.2802227,12.6552076,1.2779558,14.9052057,2.728054,14.9067268L2.728054,14.9067268z"/></g><g><path class="st0" d="M16.6447735,9.4403467c1.4477673,0,1.4501648-2.2500005,0-2.2500005    C15.1970053,7.1903462,15.1946077,9.4403467,16.6447735,9.4403467L16.6447735,9.4403467z"/></g><g><path class="st0" d="M12.5614395,9.4403467c1.4477673,0,1.4501657-2.2500005,0-2.2500005    C11.1136723,7.1903462,11.1112738,9.4403467,12.5614395,9.4403467L12.5614395,9.4403467z"/></g><g><path class="st0" d="M8.3114395,9.5236797c1.4477673,0,1.4501657-2.25,0-2.25    C6.8636718,7.2736797,6.8612738,9.5236797,8.3114395,9.5236797L8.3114395,9.5236797z"/></g><g><path class="st0" d="M32.6239357,22.3155041c-0.042572,6.532753,0.0937347,13.0590534,0.4090309,19.5843067    c0.6987991-0.18927,1.3976021-0.37854,2.096405-0.5678101c-1.7602844-2.4139862-3.6063633-4.1815491-6.4950809-5.061512    c-1.7219219-0.5245361-3.5148697-0.8371544-5.2977715-1.0626869c-1.206974-0.1526794-2.4180832-0.2577019-3.6348381-0.2865219    c-1.8231583-0.0431824-2.4919224,0.5341682-3.5158463-1.1702957c-0.9582453-1.5951385-0.917263-3.7301502,1.4051895-4.6568432    c0.7195892-0.2871246,2.2246265,0.0176315,3.0095005,0.0211906c1.5703449,0.0071201,3.0841484,0.0811386,4.5883579-0.4137459    c3.4011078-1.1189651,6.5013962-3.6793232,9.0424709-6.1182575c1.0466919-1.0046158-0.5456772-2.5942841-1.5909882-1.5909901    c-2.1863003,2.0984192-4.6892796,4.1831341-7.5419693,5.3144035c-2.4241886,0.9613438-4.9795933,0.3856792-7.5073719,0.5373993    c-3.2609253,0.1957264-4.1168118,2.0066795-4.2245703,5.1220455c-0.0797758,2.3063889,0.5245152,4.7405167,3.0017881,5.2262917    c2.8270683,0.5543671,5.9178219-0.002903,8.8304749,0.5681763c3.425312,0.6715927,5.8680134,1.7999039,7.9878445,4.7069626    c0.6011772,0.8244362,2.1552544,0.6501236,2.096405-0.5678062c-0.3153-6.52528-0.4516029-13.0515785-0.4090309-19.5843067    C34.8833733,20.8673916,32.6333847,20.8658085,32.6239357,22.3155041L32.6239357,22.3155041z"/></g><g><path class="st0" d="M34.3175888,29.3937206c1.2984657-0.0119534,1.8784142,0.8984375,1.9660568,2.0904903    c0.1005821,1.3680191-0.3872147,2.2536736-1.8525429,2.452507c-1.4282227,0.1937981-0.8200722,2.3620644,0.5981407,2.1696243    c1.0484886-0.1422691,2.3165169-0.7413101,2.9569168-1.619278c0.6734543-0.9232864,0.625679-2.3353615,0.5126762-3.4241219    c-0.2346687-2.2609844-1.8553123-3.9406357-4.1812477-3.9192219    C32.8705177,27.1570415,32.8669701,29.407074,34.3175888,29.3937206L34.3175888,29.3937206z"/></g><g><path class="st0" d="M20.8579597,28.1487713c-0.0382862,2.4193439,0.0157127,4.8346958,0.1620827,7.2498913    c0.0871906,1.4387016,2.3377934,1.4486389,2.25,0c-0.1463699-2.4152145-0.2003689-4.8305664-0.1620827-7.2498913    C23.1308804,26.7003803,20.8808861,26.6999607,20.8579597,28.1487713L20.8579597,28.1487713z"/></g><g><path class="st0" d="M17.1864395,36.4820137c0,1.6388893,0,3.2777786,0,4.9166679c0,1.4477654,2.25,1.4501648,2.25,0    c0-1.6388893,0-3.2777786,0-4.9166679C19.4364395,35.0342445,17.1864395,35.0318489,17.1864395,36.4820137L17.1864395,36.4820137z    "/></g></g></svg>